<svg xmlns="http://www.w3.org/2000/svg" xmlns:xlink="http://www.w3.org/1999/xlink" version="1.1" id="Layer_1" x="0" y="0" viewBox="0 0 35.2 26.4" enable-background="new 0 0 35.2 26.4" xml:space="preserve"><path fill="#58595B" d="M33.4 0H1.9C0.8 0 0 0.8 0 1.9v22.6c0 1 0.8 1.9 1.9 1.9h31.5c1 0 1.9-0.8 1.9-1.9V1.9C35.2 0.8 34.4 0 33.4 0zM32.8 2.5v5.9H2.5V2.5H32.8zM2.5 23.8V10.3h30.3v13.5H2.5z"/><path fill="#58595B" d="M5.5 6.4h1.4c0.6 0 1-0.4 1-1s-0.4-1-1-1H5.5c-0.6 0-1 0.4-1 1S4.9 6.4 5.5 6.4z"/><path fill="#58595B" d="M10.8 6.4h1.4c0.6 0 1-0.4 1-1s-0.4-1-1-1h-1.4c-0.6 0-1 0.4-1 1S10.2 6.4 10.8 6.4z"/><path fill="#58595B" d="M16.1 6.4h13.7c0.6 0 1-0.4 1-1s-0.4-1-1-1H16.1c-0.6 0-1 0.4-1 1S15.6 6.4 16.1 6.4z"/></svg>