<?xml version="1.0" encoding="utf-8"?>
<!-- Generator: Adobe Illustrator 17.1.0, SVG Export Plug-In . SVG Version: 6.00 Build 0)  -->
<!DOCTYPE svg PUBLIC "-//W3C//DTD SVG 1.1//EN" "http://www.w3.org/Graphics/SVG/1.1/DTD/svg11.dtd">
<svg version="1.1" id="Layer_1" xmlns="http://www.w3.org/2000/svg" xmlns:xlink="http://www.w3.org/1999/xlink" x="0px" y="0px"
	 viewBox="0 0 16.2890625 16.2890644" enable-background="new 0 0 16.2890625 16.2890644" xml:space="preserve">
<g>
	<g>
		<path fill="#58595B" d="M13.1514244,10.082056c-0.5622559,0.8378-2.2352581,1.4726553-4.2883625,1.5910072
			c-0.1056404,0.0062704-0.2124395,0.0106745-0.3199644,0.013876c-0.0191278,0.0006666-0.0384016,0.0012016-0.0575294,0.0017347
			c-0.1049156,0.0028028-0.210556,0.0045357-0.3172112,0.0045357H8.1677771H8.1673431
			c-0.1066561,0-0.212296-0.0021343-0.3175015-0.0045357c-0.0192728-0.0005331-0.0382566-0.0010681-0.057385-0.0017347
			c-0.1075239-0.0032024-0.214179-0.0077391-0.3198195-0.013876c-2.0532484-0.1183519-3.7263954-0.7530727-4.2885065-1.5910063
			c-0.1325939-0.1972075-0.2031658-0.0915318-0.2031658,0.0062714c0,0.0975361,0,1.366045,0,1.366045
			c0,0.8311281,0.9172888,1.6813374,2.3094523,2.1985073l-0.000145,0.000267
			c0.0050721,0.0018682,0.0104337,0.0034695,0.0155058,0.0053377c0.0875263,0.032156,0.1772265,0.0629778,0.2683759,0.0924664
			c0.0195627,0.0064039,0.0388365,0.0128088,0.0583992,0.0188131c0.0988297,0.0312223,0.1992531,0.0611105,0.3018503,0.0891304
			c0.0047822,0.0012007,0.0098543,0.0024014,0.0147815,0.0037355c0.0968003,0.0257521,0.19592,0.0500364,0.2959089,0.0727186
			c0.0227513,0.0052042,0.0455022,0.0104084,0.068398,0.0153446c0.1059303,0.0233498,0.2130198,0.0450983,0.3224277,0.0641794
			c0.0049272,0.0010681,0.0098538,0.0018682,0.0098538,0.0018682c0.1079593,0.0190792,0.2130198,0.0348234,0.3188052,0.0493679
			c0.0268087,0.003602,0.053617,0.0073385,0.0805707,0.010808c0.1114368,0.0141439,0.223453,0.0269527,0.3374982,0.0370932
			c0.0044923,0.0003996,0.0089846,0.0006666,0.0089846,0.0006666c0.1137557,0.0097408,0.2243228,0.0168133,0.3356152,0.0222836
			c0.029707,0.0017347,0.059269,0.0026684,0.0891209,0.0040026c0.1156392,0.0046692,0.2325821,0.0078726,0.3506851,0.0078726
			h0.0005798h0.000145h0.000145h0.0005798c0.1181021,0,0.2350464-0.0029364,0.3514099-0.0077391
			c0.0298519-0.0014677,0.059413-0.0026684,0.0891209-0.0040026c0.1112919-0.0054712,0.221714-0.0125427,0.3308325-0.021883
			c0,0,0.0089846-0.0006666,0.0136223-0.0010672c0.1140442-0.0101404,0.2262068-0.0229502,0.3376436-0.0370941
			c0.0270977-0.0034685,0.0537615-0.007205,0.0805702-0.010807c0.1057854-0.0145445,0.210701-0.0304222,0.314023-0.0485687
			c0.0047827-0.0008001,0.0097094-0.0016012,0.014781-0.0026674c0.1091185-0.0192137,0.2162075-0.0409632,0.3222828-0.0641804
			c0.0227518-0.0049372,0.0453577-0.0101395,0.0681086-0.0153437c0.1004238-0.0226831,0.199399-0.046833,0.2964888-0.0729856
			c0.0047817-0.0013342,0.0095644-0.0025339,0.0144911-0.0034685c0.1027422-0.0280199,0.203021-0.0577745,0.3021402-0.0891304
			c0.0194187-0.0060043,0.0385456-0.0124092,0.0576744-0.0186806c0.0912943-0.0297546,0.1815739-0.0604439,0.2692461-0.0928659
			c0.0049267-0.0018682,0.0101433-0.0032024,0.014925-0.0050707l-0.000145-0.000267
			c1.3921642-0.5173035,2.3094521-1.3675127,2.3094521-2.1985073c0,0,0-1.2685099,0-1.366046
			C13.3545904,9.9906569,13.2840185,9.8851147,13.1514244,10.082056z"/>
		<path fill="#58595B" d="M13.3479242,3.8439867C13.2089548,2.894907,10.943265,2.140233,8.167778,2.140233h-0.000145h-0.000145
			c-2.8650422,0-5.1869569,0.8041761-5.1869569,1.7960868v0.8592825c0,1.0522203,2.3217697,1.905098,5.1869569,1.905098h0.000145
			h0.000145c2.7754869,0,5.0411768-0.8004403,5.1801462-1.8070278c0.0044918-0.0325565,0.0069551-0.0651135,0.0069551-0.0980701
			V3.9363198C13.3545904,3.9053643,13.352416,3.8746758,13.3479242,3.8439867z"/>
		<path fill="#58595B" d="M13.160409,6.5920892C12.6746664,7.241888,11.323657,7.7542548,9.6080523,7.9413223
			c-0.2227287,0.0242839-0.4515438,0.042697-0.6854305,0.0557733C8.9121885,7.9976296,8.9014645,7.9984298,8.8905964,7.9988303
			c-0.1104231,0.0058703-0.221859,0.010407-0.3346004,0.0136094C8.5417938,8.0128403,8.5275927,8.0131073,8.5131016,8.0136404
			C8.3989115,8.0164423,8.2839966,8.018177,8.167778,8.018177c-0.0042028,0-0.0085497-0.0001326-0.0085497-0.0001326
			c-0.1124516,0-0.219831-0.0017347-0.3264856-0.0041361C7.8126001,8.0133743,7.7924576,8.0128403,7.7724595,8.0123062
			c-0.1086836-0.003068-0.216208-0.0076046-0.3227177-0.0132089C7.4349608,7.9984303,7.4204698,7.9973626,7.4059787,7.996562
			C7.1787577,7.9837527,6.9561739,7.9658732,6.7395315,7.94239C5.0179844,7.7565236,3.6616144,7.2433562,3.1750021,6.5920897
			C3.0483496,6.4225016,2.980531,6.5145674,2.980531,6.5915556c0,0.0768552,0,1.6072855,0,1.6072855
			c0,1.1960564,2.2972796,2.1662178,5.1407309,2.1767597l0.092598-0.0004005v0.0004005
			c0.0101442,0,0.0202875-0.0004005,0.0304317-0.0004005l0.0566597-0.000267l0.0007248-0.0008001
			c2.8027306-0.0298872,5.0530586-0.9917765,5.0530586-2.1754246c0,0,0-1.5304298,0-1.6072845
			C13.3545904,6.5145669,13.2867708,6.4225011,13.160409,6.5920892z"/>
	</g>
</g>
<rect x="0.0000862" y="-0.0000053" fill="none" width="16.2890625" height="16.2890625"/>
</svg>
