<?xml version="1.0" encoding="utf-8"?>
<!-- Generator: Adobe Illustrator 17.1.0, SVG Export Plug-In . SVG Version: 6.00 Build 0)  -->
<!DOCTYPE svg PUBLIC "-//W3C//DTD SVG 1.1//EN" "http://www.w3.org/Graphics/SVG/1.1/DTD/svg11.dtd">
<svg version="1.1" id="Layer_1" xmlns="http://www.w3.org/2000/svg" xmlns:xlink="http://www.w3.org/1999/xlink" x="0px" y="0px"
	 viewBox="0 0 16.2890625 16.2890644" enable-background="new 0 0 16.2890625 16.2890644" xml:space="preserve">
<g>
	<g>
		<path fill="#58595B" d="M13.3086967,5.7774959v7.7461267c0,0.3565588-0.2891197,0.6456776-0.6456776,0.6456776H3.6262045
			c-0.3565581,0-0.6456776-0.2891188-0.6456776-0.6456776V2.7654469c0-0.3565583,0.2891195-0.6456776,0.6456776-0.6456776h6.024766
			c0.3562241,0,0.8536692,0.2083261,1.102726,0.4573827l2.0976171,2.0976174
			C13.1003704,4.9238257,13.3086967,5.4212713,13.3086967,5.7774959z M12.4480162,6.4231734H9.6509705
			c-0.3565588,0-0.6456776-0.2891192-0.6456776-0.6456776V2.9804502H3.8412077v10.3281689h8.6068087V6.4231734z
			 M9.8659735,5.5624924h2.5282917c-0.0403967-0.1141787-0.1008244-0.2286911-0.1478987-0.2757649l-2.1046276-2.1046283
			c-0.0470743-0.0470736-0.1615868-0.1075015-0.2757654-0.1478982V5.5624924z"/>
	</g>
	<path fill="#58595B" d="M5.1765652,6.0472636c0-0.1909738,0.14323-0.3342037,0.3342037-0.3342037h2.5144844
		c0.1909742,0,0.3342037,0.14323,0.3342037,0.3342037S8.2162266,6.3814673,8.0252533,6.3814673H5.5107689
		C5.3197951,6.3814669,5.1765652,6.2382369,5.1765652,6.0472636z M5.1765652,7.8296833
		c0,0.1909733,0.14323,0.3342037,0.3342037,0.3342037h5.2676859c0.1909733,0,0.3342037-0.1432304,0.3342037-0.3342037
		c0-0.1909738-0.1432304-0.3342037-0.3342037-0.3342037H5.5107689C5.3197951,7.4954791,5.1765652,7.6546235,5.1765652,7.8296833z
		 M10.7784548,9.2778988H5.5107689c-0.1909738,0-0.3342037,0.1432304-0.3342037,0.3342037s0.14323,0.3342028,0.3342037,0.3342028
		h5.2676859c0.1909733,0,0.3342037-0.1432304,0.3342037-0.3342028C11.1126585,9.4370432,10.9535141,9.2778988,10.7784548,9.2778988z
		 M10.7784548,11.060318H5.5107689c-0.1909738,0-0.3342037,0.1432304-0.3342037,0.3342037s0.14323,0.3342037,0.3342037,0.3342037
		h5.2676859c0.1909733,0,0.3342037-0.1432304,0.3342037-0.3342037C11.1126585,11.2194633,10.9535141,11.060318,10.7784548,11.060318
		z"/>
</g>
<rect x="0.0000862" y="-0.0000053" fill="none" width="16.2890625" height="16.2890625"/>
</svg>
