<?xml version="1.0" encoding="utf-8"?>
<!-- Generator: Adobe Illustrator 17.1.0, SVG Export Plug-In . SVG Version: 6.00 Build 0)  -->
<!DOCTYPE svg PUBLIC "-//W3C//DTD SVG 1.1//EN" "http://www.w3.org/Graphics/SVG/1.1/DTD/svg11.dtd">
<svg version="1.1" id="Layer_1" xmlns="http://www.w3.org/2000/svg" xmlns:xlink="http://www.w3.org/1999/xlink" x="0px" y="0px"
	 viewBox="111.982048 169.6423035 388.0419922 452.7156067"
	 enable-background="new 111.982048 169.6423035 388.0419922 452.7156067" xml:space="preserve">
<g>
	<g>
		<path fill="#58595B" d="M500.0240173,307.0675659V598.098999c0,13.3963623-10.8625793,24.2589111-24.2588806,24.2589111
			H136.2409515c-13.3963318,0-24.2589035-10.8625488-24.2589035-24.2589111V193.9011993
			c0-13.3963318,10.8625717-24.2588959,24.2589035-24.2588959h226.3578339c13.3837585,0,32.0733948,7.8270721,41.4307556,17.184433
			l78.8100586,78.8100433C492.1969604,274.9941406,500.0240173,293.6837769,500.0240173,307.0675659z M467.6871948,331.3264771
			H362.5987854c-13.3963623,0-24.2589111-10.8625793-24.2589111-24.2589111V201.9791412H144.3188782v388.0419312h323.3683167
			V331.3264771z M370.6766968,298.989624h94.9910278c-1.5177612-4.2898254-3.7880859-8.5921936-5.5567322-10.3608398
			l-79.0734558-79.0734558c-1.7686157-1.7686005-6.0710144-4.0389557-10.3608398-5.5567169V298.989624z"/>
	</g>
	<path fill="#58595B" d="M194.4898987,317.203064c0-7.1751099,5.3813171-12.556427,12.5564423-12.556427h94.4722443
		c7.1751404,0,12.5564575,5.3813171,12.5564575,12.556427c0,7.1751404-5.3813477,12.5564575-12.5564575,12.5564575h-94.4722443
		C199.8712158,329.759491,194.4898987,324.3781738,194.4898987,317.203064z M194.4898987,384.1707764
		c0,7.1750793,5.3813171,12.556427,12.5564423,12.556427h197.9134064c7.1751099,0,12.556427-5.3813477,12.556427-12.556427
		c0-7.1751404-5.3813171-12.5564575-12.556427-12.5564575H207.0463409
		C199.8712158,371.6142883,194.4898987,377.5935364,194.4898987,384.1707764z M404.9597473,438.5820007H207.0463409
		c-7.1751251,0-12.5564423,5.3813171-12.5564423,12.556427s5.3813171,12.556427,12.5564423,12.556427h197.9134064
		c7.1751099,0,12.556427-5.3813477,12.556427-12.556427C417.5161743,444.5612488,411.5369263,438.5820007,404.9597473,438.5820007z
		 M404.9597473,505.5496521H207.0463409c-7.1751251,0-12.5564423,5.3813477-12.5564423,12.556427
		c0,7.1751099,5.3813171,12.5564575,12.5564423,12.5564575h197.9134064c7.1751099,0,12.556427-5.3813477,12.556427-12.5564575
		C417.5161743,511.5289612,411.5369263,505.5496521,404.9597473,505.5496521z"/>
</g>
</svg>
