<?xml version="1.0" encoding="utf-8"?>
<!-- Generator: Adobe Illustrator 17.1.0, SVG Export Plug-In . SVG Version: 6.00 Build 0)  -->
<!DOCTYPE svg PUBLIC "-//W3C//DTD SVG 1.1//EN" "http://www.w3.org/Graphics/SVG/1.1/DTD/svg11.dtd">
<svg version="1.1" id="Layer_1" xmlns="http://www.w3.org/2000/svg" xmlns:xlink="http://www.w3.org/1999/xlink" x="0px" y="0px"
	 viewBox="0 0 16.2890625 16.2890644" enable-background="new 0 0 16.2890625 16.2890644" xml:space="preserve">
<rect x="0.0000862" y="-0.0000053" fill="none" width="16.2890625" height="16.2890625"/>
<g>
	<path fill="#58595B" d="M10.296319,8.7731857c0,0.0874701-0.0671053,0.1882944-0.1545753,0.2016487L9.0994444,9.1364212
		c-0.05375,0.1746063-0.1278667,0.3428698-0.2153368,0.5111332c0.1882944,0.268754,0.3902779,0.517477,0.6052809,0.7732105
		c0.0270424,0.0403967,0.0470734,0.0804596,0.0470734,0.1342096c0,0.0470743-0.0133533,0.0941477-0.0470734,0.1278677
		c-0.1345434,0.1816177-0.8873892,1.0019016-1.082695,1.0019016c-0.053751,0-0.1008244-0.0200319-0.1408873-0.0470734
		l-0.7735443-0.6052818c-0.1679296,0.087471-0.3361931,0.1549091-0.517477,0.2086601
		c-0.0337191,0.3428707-0.0674386,0.7127829-0.1549091,1.0422983c-0.0267081,0.0941477-0.1075015,0.161253-0.2016487,0.161253
		H5.3676023c-0.0941477,0-0.1882949-0.0741158-0.2016492-0.1682634L5.011044,11.2477264
		c-0.1746068-0.053751-0.3428702-0.1278667-0.5041227-0.2083263l-0.7935758,0.5982704
		c-0.0333855,0.0337191-0.0874703,0.0470734-0.1342101,0.0470734c-0.0540845,0-0.1011584-0.0200319-0.141221-0.053751
		c-0.1749406-0.161252-0.9685163-0.8807125-0.9685163-1.0760183c0-0.0467396,0.0203652-0.0871363,0.0470738-0.127533
		c0.1949718-0.2557335,0.3969548-0.5044565,0.5919266-0.7665329C3.014251,9.479291,2.9334579,9.2976732,2.8730299,9.1093788
		l-1.0222671-0.161253c-0.0941473-0.0133543-0.1612524-0.1008244-0.1612524-0.194972V7.5092063
		c0-0.0874701,0.0671051-0.1882944,0.1545752-0.2016487l1.0422986-0.1615863
		C2.940135,6.9713645,3.014251,6.8031011,3.1017213,6.6348376c-0.1882946-0.268754-0.3902776-0.517477-0.6052809-0.7732105
		C2.469398,5.8212304,2.4493668,5.7741566,2.4493668,5.727417c0-0.0470738,0.0133541-0.0941477,0.0470736-0.1345439
		c0.1345439-0.1816177,0.8873892-0.995225,1.082695-0.995225c0.053751,0,0.1008246,0.0200315,0.1408873,0.0470738
		L4.493567,5.2500029c0.1679296-0.0874705,0.3361931-0.1549091,0.517477-0.2153373
		c0.0337195-0.3361931,0.0674386-0.7061052,0.1549091-1.0356212C5.1926618,3.904897,5.2734547,3.8377919,5.3676023,3.8377919
		H6.618227c0.0941472,0,0.1882944,0.074116,0.2016487,0.1682634l0.1549091,1.0286102
		c0.1746068,0.053751,0.3428702,0.1278667,0.5041227,0.2083263L8.2724838,4.644722
		c0.0403957-0.0337195,0.0874701-0.0470738,0.1342096-0.0470738c0.0540848,0,0.1011581,0.0200315,0.141221,0.053751
		c0.1749411,0.1612525,0.9685163,0.887723,0.9685163,1.0760179c0,0.0467396-0.0203648,0.0871363-0.0470734,0.127533
		C9.2743855,6.1173606,9.072402,6.3594065,8.8841076,6.6214833C8.9715776,6.8031011,9.052371,6.9847188,9.1127987,7.1730137
		L10.135066,7.327589c0.0941477,0.020031,0.161253,0.1075015,0.161253,0.2016487V8.7731857z M5.9929147,6.4198341
		c-0.9481511,0-1.7213616,0.7732105-1.7213616,1.7213621c0,0.9481506,0.7732105,1.7213612,1.7213616,1.7213612
		s1.7213616-0.7732105,1.7213616-1.7213612C7.7142763,7.1930447,6.9410658,6.4198341,5.9929147,6.4198341z M14.5997229,5.1692095
		c0,0.1008248-0.8673582,0.194972-1.0019016,0.2083263c-0.053751,0.1278667-0.1208563,0.2420454-0.2016497,0.3498812
		c0.0604277,0.1342101,0.3428707,0.8065963,0.3428707,0.9277859c0,0.0200315-0.0066776,0.0337195-0.0270424,0.0470738
		c-0.0804596,0.0470734-0.7999191,0.4774141-0.8336391,0.4774141c-0.0874701,0-0.5915928-0.6723862-0.6590319-0.7732105
		c-0.0671043,0.0066767-0.1345434,0.0133538-0.2016487,0.0133538s-0.1345444-0.0066772-0.2016487-0.0133538
		c-0.0674391,0.1008244-0.5715618,0.7732105-0.6590319,0.7732105c-0.03372,0-0.7531796-0.4303408-0.8336382-0.4774141
		c-0.0203657-0.0133543-0.0270424-0.0337195-0.0270424-0.0470738c0-0.1141787,0.2824421-0.7935758,0.3428698-0.9277859
		c-0.0807934-0.1078358-0.1478987-0.2220144-0.2016487-0.3498812c-0.1345444-0.0133543-1.0019026-0.1075015-1.0019026-0.2083263
		v-0.941474c0-0.1008244,0.8673582-0.1949716,1.0019026-0.2083259c0.05375-0.1211898,0.1208553-0.2420456,0.2016487-0.3498812
		c-0.0604277-0.1342101-0.3428698-0.8136072-0.3428698-0.9277859c0-0.0133543,0.0066767-0.0337195,0.0270424-0.0470738
		c0.0804586-0.0403965,0.7999182-0.470737,0.8336382-0.470737c0.0874701,0,0.5915928,0.665709,0.6590319,0.7665336
		c0.0671043-0.0066772,0.1345434-0.0133543,0.2016487-0.0133543s0.1345444,0.0066772,0.2016487,0.0133543
		c0.1882954-0.2620771,0.3899441-0.524488,0.6186352-0.7528455l0.0403967-0.0136881
		c0.03372,0,0.7531796,0.4236634,0.8336391,0.470737c0.0203648,0.0133543,0.0270424,0.0337195,0.0270424,0.0470738
		c0,0.1211896-0.282443,0.7935758-0.3428707,0.9277859c0.0807934,0.1078355,0.1478987,0.2286913,0.2016497,0.3498812
		c0.1345434,0.0133543,1.0019016,0.1075015,1.0019016,0.2083259V5.1692095z M14.5997229,12.054656
		c0,0.1008244-0.8673582,0.194972-1.0019016,0.2083263c-0.053751,0.1278667-0.1208563,0.2420454-0.2016497,0.3498812
		c0.0604277,0.1342096,0.3428707,0.8065958,0.3428707,0.9277859c0,0.020031-0.0066776,0.0337191-0.0270424,0.0470734
		c-0.0804596,0.0470743-0.7999191,0.4774141-0.8336391,0.4774141c-0.0874701,0-0.5915928-0.6723862-0.6590319-0.7732105
		c-0.0671043,0.0066776-0.1345434,0.0133543-0.2016487,0.0133543s-0.1345444-0.0066767-0.2016487-0.0133543
		c-0.0674391,0.1008244-0.5715618,0.7732105-0.6590319,0.7732105c-0.03372,0-0.7531796-0.4303398-0.8336382-0.4774141
		c-0.0203657-0.0133543-0.0270424-0.0337191-0.0270424-0.0470734c0-0.1141787,0.2824421-0.7935762,0.3428698-0.9277859
		c-0.0807934-0.1078358-0.1478987-0.2220144-0.2016487-0.3498812c-0.1345444-0.0133543-1.0019026-0.107502-1.0019026-0.2083263
		v-0.941474c0-0.1008244,0.8673582-0.194972,1.0019026-0.2083263c0.05375-0.1211891,0.1208553-0.2420454,0.2016487-0.3498812
		c-0.0604277-0.1342096-0.3428698-0.8136063-0.3428698-0.9277859c0-0.0133533,0.0066767-0.0337191,0.0270424-0.0470734
		c0.0804586-0.0403967,0.7999182-0.4707365,0.8336382-0.4707365c0.0874701,0,0.5915928,0.6657085,0.6590319,0.7665329
		c0.0671043-0.0066767,0.1345434-0.0133543,0.2016487-0.0133543s0.1345444,0.0066776,0.2016487,0.0133543
		c0.1882954-0.2620764,0.3899441-0.5244875,0.6186352-0.7528448l0.0403967-0.0136881
		c0.03372,0,0.7531796,0.4236631,0.8336391,0.4707365c0.0203648,0.0133543,0.0270424,0.03372,0.0270424,0.0470734
		c0,0.1211901-0.282443,0.7935762-0.3428707,0.9277859c0.0807934,0.1078358,0.1478987,0.2286921,0.2016497,0.3498812
		c0.1345434,0.0133543,1.0019016,0.107502,1.0019016,0.2083263V12.054656z M12.0176802,3.8377919
		c-0.4707365,0-0.8606806,0.3899436-0.8606806,0.8606806c0,0.4774141,0.3899441,0.8606811,0.8606806,0.8606811
		c0.4774141,0,0.8606806-0.3899441,0.8606806-0.8606811S12.4884176,3.8377919,12.0176802,3.8377919z M12.0176802,10.723238
		c-0.4707365,0-0.8606806,0.3899441-0.8606806,0.8606815c0,0.4774141,0.3899441,0.8606806,0.8606806,0.8606806
		c0.4774141,0,0.8606806-0.3899441,0.8606806-0.8606806C12.8783607,11.1131821,12.4884176,10.723238,12.0176802,10.723238z"/>
</g>
</svg>
