<?xml version="1.0" encoding="utf-8"?>
<!-- Generator: Adobe Illustrator 17.1.0, SVG Export Plug-In . SVG Version: 6.00 Build 0)  -->
<!DOCTYPE svg PUBLIC "-//W3C//DTD SVG 1.1//EN" "http://www.w3.org/Graphics/SVG/1.1/DTD/svg11.dtd">
<svg version="1.1" id="Layer_1" xmlns="http://www.w3.org/2000/svg" xmlns:xlink="http://www.w3.org/1999/xlink" x="0px" y="0px"
	 viewBox="0 0 16.2890625 16.2890644" enable-background="new 0 0 16.2890625 16.2890644" xml:space="preserve">
<g>
	<path fill="#58595B" d="M13.3086958,8.9043913c0,0.1008244-0.0807924,0.2220144-0.1882944,0.2420454l-1.243948,0.1882954
		c-0.0741158,0.215003-0.1545753,0.4169855-0.2620764,0.6119576c0.2283573,0.3295164,0.4704027,0.6253128,0.7194595,0.9277859
		c0.0400629,0.0470743,0.0671053,0.107502,0.0671053,0.1682634c0,0.0604286-0.0200319,0.107502-0.0604286,0.1545753
		c-0.1615858,0.215004-1.0693407,1.2035513-1.297698,1.2035513c-0.0607615,0-0.1211901-0.0270424-0.1749401-0.0604277
		l-0.9277859-0.7261372c-0.1953058,0.1008244-0.4036322,0.1879606-0.6119585,0.2553997
		c-0.0470734,0.4099751-0.0874701,0.8473263-0.194972,1.2506247c-0.0270424,0.107502-0.1211891,0.1882954-0.2420454,0.1882954
		H7.3981094c-0.1208563,0-0.2283578-0.087471-0.2420459-0.2016497l-0.1882949-1.2372704
		c-0.2083259-0.0674391-0.4099751-0.1478977-0.6049471-0.248723l-0.9481511,0.7194605
		c-0.0470734,0.0403967-0.1075015,0.0604277-0.1682634,0.0604277c-0.0604277,0-0.1208558-0.0270424-0.1679292-0.0741158
		c-0.3565583-0.322505-0.8269615-0.7394915-1.1094038-1.1294355c-0.0337193-0.0470734-0.0470736-0.1008244-0.0470736-0.1545753
		c0-0.0607615,0.0200315-0.1078348,0.0537508-0.1549091c0.2286913-0.3091507,0.4774144-0.6049471,0.7061055-0.9211082
		C4.5673442,9.7517176,4.4731965,9.5297041,4.4060917,9.301012L3.1754985,9.1193943
		c-0.1141789-0.020031-0.194972-0.127533-0.194972-0.2420454V7.3846788c0-0.1008244,0.0807931-0.2220144,0.1816177-0.2420454
		l1.2506247-0.1882949c0.0671048-0.2150035,0.1545753-0.416986,0.2620769-0.6186352
		C4.4464884,6.0128646,4.2044425,5.710391,3.9553859,5.4079175C3.9153233,5.3608437,3.8882809,5.3070931,3.8882809,5.2463312
		c0-0.0604281,0.0270424-0.1075015,0.0604281-0.1545753c0.1615863-0.2216806,1.0693407-1.2035511,1.297698-1.2035511
		c0.0607619,0,0.1211901,0.0270424,0.1749406,0.0671051l0.9277859,0.7194595
		c0.1953058-0.1008244,0.4036322-0.1879606,0.611958-0.2553997c0.0470738-0.4099751,0.0874705-0.8473265,0.194972-1.2506244
		c0.0270424-0.1075017,0.1211896-0.1882949,0.2420459-0.1882949h1.4930038c0.1208563,0,0.2283573,0.0874703,0.2420454,0.201649
		L9.321454,4.4193697c0.2083254,0.0674391,0.4099751,0.1478982,0.6049471,0.248723l0.9548283-0.71946
		c0.0403957-0.0403965,0.1008244-0.0604279,0.1615858-0.0604279c0.0604277,0,0.1208563,0.0270424,0.1679296,0.0671051
		c0.3565578,0.3295159,0.8269615,0.7465019,1.1094036,1.1431231c0.0337191,0.0403967,0.0470734,0.0941472,0.0470734,0.1478982
		c0,0.0607619-0.020031,0.1078353-0.053751,0.1549091c-0.2286911,0.3091507-0.4774132,0.6049471-0.7061052,0.9211087
		c0.1145124,0.2150035,0.2086601,0.4370174,0.2757654,0.6590319l1.2305927,0.1882949
		c0.1141796,0.020031,0.194972,0.127533,0.194972,0.2420454V8.9043913z M8.1446114,6.4231734
		c-0.9481511,0-1.7213616,0.7732105-1.7213616,1.7213616s0.7732105,1.7213621,1.7213616,1.7213621
		s1.7213612-0.7732105,1.7213612-1.7213621S9.092762,6.4231734,8.1446114,6.4231734z"/>
</g>
<rect x="0.0000862" y="-0.0000053" fill="none" width="16.2890625" height="16.2890625"/>
</svg>
