<?xml version="1.0" encoding="utf-8"?>
<!-- Generator: Adobe Illustrator 17.1.0, SVG Export Plug-In . SVG Version: 6.00 Build 0)  -->
<!DOCTYPE svg PUBLIC "-//W3C//DTD SVG 1.1//EN" "http://www.w3.org/Graphics/SVG/1.1/DTD/svg11.dtd">
<svg version="1.1" id="Layer_1" xmlns="http://www.w3.org/2000/svg" xmlns:xlink="http://www.w3.org/1999/xlink" x="0px" y="0px"
	 viewBox="111.982048 169.6423035 388.0419922 452.7156067"
	 enable-background="new 111.982048 169.6423035 388.0419922 452.7156067" xml:space="preserve">
<g>
	<path fill="#58595B" d="M500.092865,307.0919495v291.0830994c0,13.3987427-10.864502,24.2631836-24.2631836,24.2631836H136.2452393
		c-13.3986969,0-24.2631912-10.8644409-24.2631912-24.2631836V193.9055023
		c0-13.3987122,10.8644943-24.2631989,24.2631912-24.2631989H362.643219c13.3861694,0,32.0791016,7.8284607,41.4381409,17.1874695
		l78.8240356,78.8240356C492.2644043,275.0128479,500.092865,293.70578,500.092865,307.0919495z M467.7503052,331.3551331
		H362.643219c-13.3987122,0-24.2631836-10.8644714-24.2631836-24.2631836V201.9848633H144.3246155v388.1108398h323.4256897
		V331.3551331z M176.6671906,379.868988c0-26.7848511,21.7289734-48.513855,48.5138397-48.513855
		s48.513855,21.7290039,48.513855,48.513855c0,26.7848816-21.7289886,48.513855-48.513855,48.513855
		S176.6671906,406.6538696,176.6671906,379.868988z M435.4077148,557.7531128H176.6671906v-48.513855l48.5138397-48.513855
		l32.3425598,32.3425903l97.02771-97.02771l80.8564148,80.8564148V557.7531128z M370.7225952,299.0125732h95.0078735
		c-1.5180359-4.2905884-3.7887878-8.59375-5.5577087-10.3626709l-79.0874939-79.0874939
		c-1.7689209-1.7689209-6.0720825-4.0396729-10.3626709-5.5576935V299.0125732z"/>
</g>
</svg>
