<?xml version="1.0" encoding="utf-8"?>
<!-- Generator: Adobe Illustrator 17.1.0, SVG Export Plug-In . SVG Version: 6.00 Build 0)  -->
<!DOCTYPE svg PUBLIC "-//W3C//DTD SVG 1.1//EN" "http://www.w3.org/Graphics/SVG/1.1/DTD/svg11.dtd">
<svg version="1.1" id="Layer_1" xmlns="http://www.w3.org/2000/svg" xmlns:xlink="http://www.w3.org/1999/xlink" x="0px" y="0px"
	 viewBox="0 0 16.2890625 16.2890644" enable-background="new 0 0 16.2890625 16.2890644" xml:space="preserve">
<rect x="0.0000862" y="-0.0000053" fill="none" width="16.2890625" height="16.2890625"/>
<g>
	<path fill="#58595B" d="M15.4604025,11.8022623c0,0.3228388-0.1816177,0.6256456-0.4774141,0.7668667l-3.0123835,1.5060253
		c-0.1211891,0.0671043-0.2487221,0.0941467-0.3832664,0.0941467c-0.1345434,0-0.2620773-0.0270424-0.3832664-0.0941467
		L8.1916885,12.569129c-0.020031-0.0070105-0.0337191-0.0136881-0.0470734-0.0270414
		c-0.0133543,0.0133533-0.0270424,0.020031-0.0470734,0.0270414l-3.0123835,1.5060253
		c-0.1211896,0.0671043-0.2487226,0.0941467-0.3832664,0.0941467S4.439815,14.1422586,4.318625,14.0751543L1.3062422,12.569129
		c-0.2957965-0.141221-0.4774141-0.4440279-0.4774141-0.7668667V9.0052166c0-0.3428707,0.2083261-0.6523552,0.5244879-0.7935762
		l2.9182358-1.2506247V4.271472c0-0.3428705,0.2083259-0.652355,0.5244875-0.793576l3.012383-1.2910213
		C7.9159236,2.139801,8.0304365,2.1197696,8.1446152,2.1197696S8.3733063,2.139801,8.4808083,2.1868746l3.0123825,1.2910213
		c0.3161621,0.141221,0.5244884,0.4507055,0.5244884,0.793576v2.6895437l2.9182348,1.2506247
		c0.3228388,0.141221,0.5244884,0.4507055,0.5244884,0.7935762V11.8022623z M7.4184785,8.8773499L4.7018919,7.7141953
		L1.9853053,8.8773499l2.7165866,1.1634874L7.4184785,8.8773499z M7.7142749,11.8022623V9.6909571l-2.5820427,1.102726v2.2999344
		L7.7142749,11.8022623z M11.1099243,4.2514405L8.1446152,2.9804504L5.179306,4.2514405l2.9653091,1.2706561L11.1099243,4.2514405z
		 M11.1569977,6.9610157V5.1725492L8.5749559,6.2752757v1.7951436L11.1569977,6.9610157z M14.3039246,8.8773499
		l-2.7165861-1.1631546L8.8707523,8.8773499l2.7165861,1.1634874L14.3039246,8.8773499z M14.5997219,11.8022623V9.6909571
		l-2.5820427,1.102726v2.2999344L14.5997219,11.8022623z"/>
</g>
</svg>
