<?xml version="1.0" encoding="utf-8"?>
<!-- Generator: Adobe Illustrator 17.1.0, SVG Export Plug-In . SVG Version: 6.00 Build 0)  -->
<!DOCTYPE svg PUBLIC "-//W3C//DTD SVG 1.1//EN" "http://www.w3.org/Graphics/SVG/1.1/DTD/svg11.dtd">
<svg version="1.1" id="Layer_1" xmlns="http://www.w3.org/2000/svg" xmlns:xlink="http://www.w3.org/1999/xlink" x="0px" y="0px"
	 viewBox="0 0 16.2890625 17.137743" enable-background="new 0 0 16.2890625 17.137743" xml:space="preserve">
<pattern  x="-292.2608643" y="-379.2608643" width="60.2959862" height="60.2959862" patternUnits="userSpaceOnUse" id="New_Pattern_Swatch_10" viewBox="0 -60.2959824 60.2959862 60.2959862" overflow="visible">
	<g>
		<polygon fill="none" points="0,0.0000016 60.2959862,0.0000016 60.2959862,-60.2959824 0,-60.2959824 		"/>
		<g>
			<polygon fill="#959596" points="60.2959862,0.0000016 0,0.0000016 0,-60.2959824 60.2959862,-60.2959824 			"/>
		</g>
	</g>
</pattern>
<pattern  x="-292.2608643" y="-379.2608643" width="60.2959862" height="60.2959862" patternUnits="userSpaceOnUse" id="New_Pattern_Swatch_12" viewBox="0 -60.2959862 60.2959862 60.2959862" overflow="visible">
	<g>
		<polygon fill="none" points="0,0 60.2959862,0 60.2959862,-60.2959862 0,-60.2959862 		"/>
		<polygon fill="#E1DFDD" points="60.2959862,0 0,0 0,-60.2959862 60.2959862,-60.2959862 		"/>
	</g>
</pattern>
<pattern  x="-292.2608643" y="-379.2608643" width="60.2959862" height="60.2959862" patternUnits="userSpaceOnUse" id="New_Pattern_Swatch_9" viewBox="0 -60.2959824 60.2959862 60.2959862" overflow="visible">
	<g>
		<polygon fill="none" points="0,0.0000016 60.2959862,0.0000016 60.2959862,-60.2959824 0,-60.2959824 		"/>
		<g>
			<polygon fill="#58595B" points="60.2959862,0.0000016 0,0.0000016 0,-60.2959824 60.2959862,-60.2959824 			"/>
		</g>
	</g>
</pattern>
<g>
	<path fill="url(#New_Pattern_Swatch_12)" d="M16.2890625,10.1914539c0,0.1591797-0.1269531,0.3496094-0.296875,0.3818359
		l-1.9619141,0.296875c-0.1162109,0.3398438-0.2441406,0.6572266-0.4140625,0.9648438
		c0.3613281,0.5195312,0.7431641,0.9863281,1.1347656,1.4638672c0.0644531,0.0742188,0.1064453,0.1699219,0.1064453,0.2646484
		c0,0.0957031-0.0322266,0.1699219-0.0957031,0.2441406c-0.2539062,0.3398438-1.6855469,1.8984375-2.046875,1.8984375
		c-0.0947266,0-0.1904297-0.0419922-0.2753906-0.0957031l-1.4638672-1.1455078
		c-0.3066406,0.1591797-0.6357422,0.2978516-0.9648438,0.4033203c-0.0742188,0.6474609-0.1376953,1.3359375-0.3076172,1.9726562
		c-0.0419922,0.1699219-0.1904297,0.296875-0.3818359,0.296875H6.9677734c-0.1914062,0-0.3613281-0.1376953-0.3818359-0.3183594
		l-0.296875-1.9511719c-0.3291016-0.1054688-0.6474609-0.2333984-0.9550781-0.3925781l-1.4951169,1.1347656
		c-0.0742188,0.0634766-0.1699219,0.0957031-0.2646484,0.0957031c-0.0957031,0-0.1914062-0.0419922-0.265625-0.1162109
		c-0.5615234-0.5097656-1.3046875-1.1669922-1.75-1.7822266c-0.0527344-0.0742188-0.0742188-0.1591797-0.0742188-0.2441406
		c0-0.0947266,0.0322266-0.1689453,0.0849609-0.2431641c0.3603516-0.4882812,0.7529297-0.9550781,1.1132812-1.453125
		c-0.1796875-0.3398438-0.328125-0.6894531-0.4345703-1.0498047l-1.9404297-0.2861328
		c-0.180664-0.0322266-0.3076172-0.2021484-0.3076172-0.3818359V7.7949696c0-0.1591797,0.1269531-0.3496094,0.2861328-0.3818359
		l1.9726562-0.296875c0.1064453-0.3398438,0.2441406-0.6572266,0.4140625-0.9755859
		C2.3115237,5.6318836,1.9296877,5.1543446,1.5380862,4.6768055C1.4736331,4.6025867,1.4316409,4.5176258,1.4316409,4.4228992
		c0-0.0957031,0.0419922-0.1699219,0.0957031-0.2441406c0.2539062-0.3505862,1.6855469-1.8984377,2.046875-1.8984377
		c0.0947266,0,0.1904297,0.0419922,0.2753906,0.1064453l1.4638669,1.1347656
		c0.3066406-0.1591797,0.6357422-0.2978516,0.9648438-0.4033203c0.0742188-0.6474609,0.1376953-1.3359374,0.3076172-1.9726561
		c0.0419922-0.1699219,0.1904297-0.296875,0.3818359-0.296875h2.3535156c0.1914062,0,0.3613281,0.1376953,0.3818359,0.3183594
		L10,3.1182115c0.3291016,0.1054688,0.6474609,0.2333984,0.9550781,0.3925781l1.5058594-1.1347656
		c0.0634766-0.0634766,0.1591797-0.0957031,0.2539062-0.0957031c0.0957031,0,0.1914062,0.0419922,0.265625,0.1064453
		c0.5615234,0.5195312,1.3046875,1.1767578,1.75,1.8027346c0.0527344,0.0634766,0.0742188,0.1484375,0.0742188,0.2333984
		c0,0.0947266-0.0322266,0.1689453-0.0849609,0.2431641c-0.3603516,0.4882812-0.7529297,0.9550781-1.1132812,1.453125
		c0.1796875,0.3398438,0.328125,0.6894531,0.4345703,1.0390625l1.9404297,0.296875
		c0.1806641,0.0322266,0.3076172,0.2021484,0.3076172,0.3818359V10.1914539z M8.1445312,6.278368
		c-1.4951172,0-2.7148438,1.2197266-2.7148438,2.7148438s1.2197266,2.7148438,2.7148438,2.7148438
		s2.7148438-1.2197266,2.7148438-2.7148438S9.6396484,6.278368,8.1445312,6.278368z"/>
</g>
<g>
	<path fill="url(#New_Pattern_Swatch_9)" d="M16.2890625,9.3427734c0,0.1591797-0.1269531,0.3496094-0.296875,0.3818359
		l-1.9619141,0.296875c-0.1162109,0.3398438-0.2441406,0.6572266-0.4140625,0.9648438
		c0.3613281,0.5195312,0.7431641,0.9863281,1.1347656,1.4638672c0.0644531,0.0742188,0.1064453,0.1699219,0.1064453,0.2646484
		c0,0.0957031-0.0322266,0.1699219-0.0957031,0.2441406c-0.2539062,0.3398438-1.6855469,1.8984375-2.046875,1.8984375
		c-0.0947266,0-0.1904297-0.0419922-0.2753906-0.0957031l-1.4638672-1.1455078
		c-0.3066406,0.1591797-0.6357422,0.2978516-0.9648438,0.4033203c-0.0742188,0.6474609-0.1376953,1.3359375-0.3076172,1.9726562
		c-0.0419922,0.1699219-0.1904297,0.296875-0.3818359,0.296875H6.9677734c-0.1914062,0-0.3613281-0.1376953-0.3818359-0.3183594
		l-0.296875-1.9511719c-0.3291016-0.1054688-0.6474609-0.2333984-0.9550781-0.3925781l-1.4951169,1.1347656
		c-0.0742188,0.0634766-0.1699219,0.0957031-0.2646484,0.0957031c-0.0957031,0-0.1914062-0.0419922-0.265625-0.1162109
		c-0.5615234-0.5097656-1.3046875-1.1669922-1.75-1.7822266c-0.0527344-0.0742188-0.0742188-0.1591797-0.0742188-0.2441406
		c0-0.0947266,0.0322266-0.1689453,0.0849609-0.2431641c0.3603516-0.4882812,0.7529297-0.9550781,1.1132812-1.453125
		c-0.1796875-0.3398438-0.328125-0.6894531-0.4345703-1.0498047L0.3076174,9.6826172
		c-0.180664-0.0322266-0.3076172-0.2021484-0.3076172-0.3818359V6.9462891c0-0.1591797,0.1269531-0.3496094,0.2861328-0.3818359
		l1.9726562-0.296875c0.1064453-0.3398438,0.2441406-0.6572266,0.4140625-0.9755859
		C2.3115237,4.7832031,1.9296877,4.3056641,1.5380862,3.8281248C1.4736331,3.753906,1.4316409,3.6689451,1.4316409,3.5742185
		c0-0.0957031,0.0419922-0.1699219,0.0957031-0.2441406c0.2539062-0.3505859,1.6855469-1.8984374,2.046875-1.8984374
		c0.0947266,0,0.1904297,0.0419922,0.2753906,0.1064453l1.4638669,1.1347655
		C5.6201172,2.5136716,5.9492188,2.3749998,6.2783203,2.269531c0.0742188-0.6474608,0.1376953-1.3359374,0.3076172-1.9726561
		c0.0419922-0.1699219,0.1904297-0.296875,0.3818359-0.296875h2.3535156c0.1914062,0,0.3613281,0.1376953,0.3818359,0.3183594
		L10,2.269531c0.3291016,0.1054688,0.6474609,0.2333984,0.9550781,0.3925781l1.5058594-1.1347655
		c0.0634766-0.0634766,0.1591797-0.0957031,0.2539062-0.0957031c0.0957031,0,0.1914062,0.0419922,0.265625,0.1064453
		c0.5615234,0.5195311,1.3046875,1.1767577,1.75,1.8027343c0.0527344,0.0634766,0.0742188,0.1484375,0.0742188,0.2333984
		c0,0.0947266-0.0322266,0.1689453-0.0849609,0.2431641c-0.3603516,0.4882815-0.7529297,0.9550784-1.1132812,1.4531252
		c0.1796875,0.3398438,0.328125,0.6894531,0.4345703,1.0390625l1.9404297,0.296875
		c0.1806641,0.0322266,0.3076172,0.2021484,0.3076172,0.3818359V9.3427734z M8.1445312,5.4296875
		c-1.4951172,0-2.7148438,1.2197266-2.7148438,2.7148438s1.2197266,2.7148438,2.7148438,2.7148438
		s2.7148438-1.2197266,2.7148438-2.7148438S9.6396484,5.4296875,8.1445312,5.4296875z"/>
</g>
<g>
	<path fill="url(#New_Pattern_Swatch_10)" d="M16.2890625,9.7559986c0,0.1591797-0.1269531,0.3496094-0.296875,0.3818359
		l-1.9619141,0.296875c-0.1162109,0.3398438-0.2441406,0.6572266-0.4140625,0.9648438
		c0.3613281,0.5195312,0.7431641,0.9863281,1.1347656,1.4638672c0.0644531,0.0742188,0.1064453,0.1699219,0.1064453,0.2646484
		c0,0.0957031-0.0322266,0.1699219-0.0957031,0.2441406c-0.2539062,0.3398438-1.6855469,1.8984375-2.046875,1.8984375
		c-0.0947266,0-0.1904297-0.0419922-0.2753906-0.0957031l-1.4638672-1.1455078
		c-0.3066406,0.1591797-0.6357422,0.2978516-0.9648438,0.4033203c-0.0742188,0.6474609-0.1376953,1.3359375-0.3076172,1.9726562
		c-0.0419922,0.1699219-0.1904297,0.296875-0.3818359,0.296875H6.9677734c-0.1914062,0-0.3613281-0.1376953-0.3818359-0.3183594
		l-0.296875-1.9511719c-0.3291016-0.1054688-0.6474609-0.2333984-0.9550781-0.3925781l-1.4951169,1.1347656
		C3.7646487,15.2384205,3.6689456,15.270647,3.574219,15.270647c-0.0957031,0-0.1914062-0.0419922-0.265625-0.1162109
		c-0.5615234-0.5097656-1.3046875-1.1669922-1.75-1.7822266c-0.0527344-0.0742188-0.0742188-0.1591797-0.0742188-0.2441406
		c0-0.0947266,0.0322266-0.1689453,0.0849609-0.2431641c0.3603516-0.4882812,0.7529297-0.9550781,1.1132812-1.453125
		c-0.1796875-0.3398438-0.328125-0.6894531-0.4345703-1.0498047l-1.9404297-0.2861328
		c-0.180664-0.0322266-0.3076172-0.2021484-0.3076172-0.3818359V7.3595142c0-0.1591797,0.1269531-0.3496094,0.2861328-0.3818359
		l1.9726562-0.296875c0.1064453-0.3398438,0.2441406-0.6572266,0.4140625-0.9755859
		C2.3115237,5.1964283,1.9296877,4.7188892,1.5380862,4.2413502C1.4736331,4.1671314,1.4316409,4.0821705,1.4316409,3.9874437
		c0-0.0957031,0.0419922-0.1699219,0.0957031-0.2441406c0.2539062-0.3505859,1.6855469-1.8984374,2.046875-1.8984374
		c0.0947266,0,0.1904297,0.0419922,0.2753906,0.1064453l1.4638669,1.1347655
		c0.3066406-0.1591797,0.6357422-0.2978516,0.9648438-0.4033203c0.0742188-0.6474609,0.1376953-1.3359374,0.3076172-1.9726561
		c0.0419922-0.1699219,0.1904297-0.296875,0.3818359-0.296875h2.3535156c0.1914062,0,0.3613281,0.1376953,0.3818359,0.3183594
		L10,2.6827562c0.3291016,0.1054688,0.6474609,0.2333984,0.9550781,0.3925781l1.5058594-1.1347655
		c0.0634766-0.0634766,0.1591797-0.0957031,0.2539062-0.0957031c0.0957031,0,0.1914062,0.0419922,0.265625,0.1064453
		c0.5615234,0.5195311,1.3046875,1.1767577,1.75,1.8027343c0.0527344,0.0634766,0.0742188,0.1484375,0.0742188,0.2333984
		c0,0.0947268-0.0322266,0.1689456-0.0849609,0.2431643c-0.3603516,0.4882812-0.7529297,0.9550781-1.1132812,1.453125
		c0.1796875,0.3398438,0.328125,0.6894531,0.4345703,1.0390625l1.9404297,0.296875
		c0.1806641,0.0322266,0.3076172,0.2021484,0.3076172,0.3818359V9.7559986z M8.1445312,5.8429127
		c-1.4951172,0-2.7148438,1.2197266-2.7148438,2.7148438s1.2197266,2.7148438,2.7148438,2.7148438
		s2.7148438-1.2197266,2.7148438-2.7148438S9.6396484,5.8429127,8.1445312,5.8429127z"/>
</g>
</svg>
