<?xml version="1.0" encoding="utf-8"?>
<!-- Generator: Adobe Illustrator 17.1.0, SVG Export Plug-In . SVG Version: 6.00 Build 0)  -->
<!DOCTYPE svg PUBLIC "-//W3C//DTD SVG 1.1//EN" "http://www.w3.org/Graphics/SVG/1.1/DTD/svg11.dtd">
<svg version="1.1" id="Layer_1" xmlns="http://www.w3.org/2000/svg" xmlns:xlink="http://www.w3.org/1999/xlink" x="0px" y="0px"
	 viewBox="0 0 16.2890625 16.2890644" enable-background="new 0 0 16.2890625 16.2890644" xml:space="preserve">
<rect x="0.0000862" y="-0.0000053" fill="none" width="16.2890625" height="16.2890625"/>
<g>
	<path fill="#58595B" d="M13.7390432,10.296237c0,0.3161612-0.1749411,0.6052809-0.4503717,0.7531786l-4.7337446,2.5820427
		c-0.1278667,0.073782-0.2690878,0.107501-0.4103088,0.107501s-0.2824426-0.0337191-0.4103093-0.107501l-4.7337446-2.5820427
		c-0.2754312-0.1478977-0.4503717-0.4370174-0.4503717-0.7531786V5.1321516c0-0.3632355,0.2286913-0.68574,0.5648844-0.8069301
		l4.7337446-1.7213614c0.0941472-0.0337195,0.194972-0.053751,0.2957964-0.053751s0.2016487,0.0200315,0.2957964,0.053751
		l4.7337446,1.7213614c0.3361931,0.1211901,0.5648842,0.4436946,0.5648842,0.8069301V10.296237z M12.837966,5.1187973
		L8.144618,3.41079L3.4512699,5.1187973L8.144618,6.8264709L12.837966,5.1187973z M12.8783627,10.296237V6.0198746
		L8.5749578,7.5863271V12.64291L12.8783627,10.296237z"/>
</g>
</svg>
