<?xml version="1.0" encoding="utf-8"?>
<!-- Generator: Adobe Illustrator 17.1.0, SVG Export Plug-In . SVG Version: 6.00 Build 0)  -->
<!DOCTYPE svg PUBLIC "-//W3C//DTD SVG 1.1//EN" "http://www.w3.org/Graphics/SVG/1.1/DTD/svg11.dtd">
<svg version="1.1" id="Layer_1" xmlns="http://www.w3.org/2000/svg" xmlns:xlink="http://www.w3.org/1999/xlink" x="0px" y="0px"
	 viewBox="0 0 16.2890625 17.137743" enable-background="new 0 0 16.2890625 17.137743" xml:space="preserve">
<g>
	<rect x="3.410707" y="3.7513442" fill="#F1F2F2" width="10.3705311" height="10.3705311"/>
	<g>
		<g>
			<path fill="#F1F2F2" d="M16.2324524,8.6965284c0,4.4808264-3.6357889,8.1162157-8.1162157,8.1162157
				s-8.1162148-3.6353893-8.1162148-8.1162157s3.6357887-8.1162157,8.1162148-8.1162157S16.2324524,4.2157011,16.2324524,8.6965284z
				 M12.5125198,8.6965284c0-0.2432146-0.1266155-0.4647913-0.3381758-0.5813904L6.4253588,4.7333822
				C6.2242165,4.6067667,5.9605675,4.6067667,5.7490072,4.7229643C5.5374475,4.8499804,5.4108319,5.0715575,5.4108319,5.3147717
				v6.7635126c0,0.2432146,0.1266155,0.4647913,0.3381753,0.5918074c0.1057801,0.0528898,0.2219782,0.0845442,0.3381758,0.0845442
				c0.1161981,0,0.2323956-0.0316544,0.3381758-0.0949621l5.7489853-3.3817558
				C12.3859043,9.1613188,12.5125198,8.9397421,12.5125198,8.6965284z"/>
		</g>
		<g>
			<path fill="#23783C" d="M16.2670612,8.1162109c0,4.4808273-3.6357889,8.1162148-8.1162157,8.1162148
				s-8.1162148-3.6353874-8.1162148-8.1162148s3.6357887-8.1162148,8.1162148-8.1162148S16.2670612,3.6353838,16.2670612,8.1162109z
				 M12.5471287,8.1162109c0-0.2432141-0.1266155-0.4647913-0.3381748-0.5813894L6.4599676,4.1530652
				C6.2588253,4.0264497,5.9951763,4.0264497,5.7836165,4.1426473C5.5720563,4.2696633,5.4454408,4.4912405,5.4454408,4.7344546
				v6.7635131c0,0.2432137,0.1266155,0.4647903,0.3381758,0.5918074c0.1057796,0.0528898,0.2219777,0.0845432,0.3381753,0.0845432
				c0.1161981,0,0.2323956-0.0316534,0.3381758-0.0949612l5.7489862-3.3817568
				C12.4205132,8.5810022,12.5471287,8.3594246,12.5471287,8.1162109z"/>
		</g>
		<g>
			<g>
				<path fill="#39B54A" d="M16.2670612,8.4067497c0,4.4808273-3.6357889,8.1162148-8.1162157,8.1162148
					s-8.1162148-3.6353874-8.1162148-8.1162148s3.6357887-8.1162157,8.1162148-8.1162157S16.2670612,3.9259222,16.2670612,8.4067497
					z M12.5471287,8.4067497c0-0.2432146-0.1266155-0.4647913-0.3381748-0.5813899L6.4599676,4.4436035
					C6.2588253,4.316988,5.9951763,4.316988,5.7836165,4.4331856C5.5720563,4.5602021,5.4454408,4.7817793,5.4454408,5.0249929
					v6.7635126c0,0.2432146,0.1266155,0.4647913,0.3381758,0.5918074c0.1057796,0.0528898,0.2219777,0.0845442,0.3381753,0.0845442
					c0.1161981,0,0.2323956-0.0316544,0.3381758-0.0949621l5.7489862-3.3817558
					C12.4205132,8.871541,12.5471287,8.6499634,12.5471287,8.4067497z"/>
			</g>
		</g>
	</g>
</g>
</svg>
