<?xml version="1.0" encoding="utf-8"?>
<!-- Generator: Adobe Illustrator 17.1.0, SVG Export Plug-In . SVG Version: 6.00 Build 0)  -->
<!DOCTYPE svg PUBLIC "-//W3C//DTD SVG 1.1//EN" "http://www.w3.org/Graphics/SVG/1.1/DTD/svg11.dtd">
<svg version="1.1" id="Layer_1" xmlns="http://www.w3.org/2000/svg" xmlns:xlink="http://www.w3.org/1999/xlink" x="0px" y="0px"
	 viewBox="0 0 16.2890625 17.137743" enable-background="new 0 0 16.2890625 17.137743" xml:space="preserve">
<g>
	<g>
		<path fill="#F1F2F2" d="M16.3073616,8.7366695c0,4.5015049-3.6525679,8.1536694-8.1536703,8.1536694
			s-8.1536694-3.6521645-8.1536694-8.1536694s3.6525669-8.1536694,8.1536694-8.1536694S16.3073616,4.2351646,16.3073616,8.7366695z
			 M12.5702629,8.7366695c0-0.2443361-0.1272001-0.4669361-0.3397369-0.5840731L6.4550104,4.7552347
			C6.2529402,4.6280351,5.9880743,4.6280351,5.775538,4.7447691C5.5630016,4.8723712,5.435802,5.0949707,5.435802,5.3393073
			v6.794724c0,0.2443371,0.1271996,0.4669361,0.339736,0.5945387c0.1062684,0.053134,0.2230024,0.0849342,0.3397365,0.0849342
			s0.2334681-0.0318003,0.339736-0.0953999l5.7755156-3.3973627C12.4430628,9.2036057,12.5702629,8.9810057,12.5702629,8.7366695z"
			/>
	</g>
	<g>
		<path fill="#37373A" d="M16.3421288,8.1536741c0,4.5015049-3.652566,8.1536703-8.1536684,8.1536703
			S0.0347909,12.655179,0.0347909,8.1536741S3.6873579,0.000005,8.1884604,0.000005S16.3421288,3.6521695,16.3421288,8.1536741z
			 M12.605031,8.1536741c0-0.2443361-0.1271992-0.4669356-0.339736-0.5840721L6.489779,4.1722398
			C6.2877088,4.0450397,6.0228434,4.0450397,5.8103065,4.1617737c-0.2125363,0.1276026-0.339736,0.3502021-0.339736,0.5945387
			v6.7947245c0,0.2443361,0.1271996,0.4669361,0.339736,0.5945377c0.1062684,0.0531349,0.2230024,0.0849342,0.3397365,0.0849342
			s0.2334681-0.0317993,0.339736-0.0953999l5.775516-3.3973618C12.4778318,8.6206102,12.605031,8.3980112,12.605031,8.1536741z"/>
	</g>
	<g>
		<path fill="#58595B" d="M16.3421288,8.4455538c0,4.5015049-3.652566,8.1536684-8.1536684,8.1536684
			s-8.1536694-3.6521635-8.1536694-8.1536684s3.6525669-8.1536694,8.1536694-8.1536694S16.3421288,3.9440486,16.3421288,8.4455538z
			 M12.605031,8.4455538c0-0.2443361-0.1271992-0.4669361-0.339736-0.5840726L6.489779,4.464119
			C6.2877088,4.3369188,6.0228434,4.3369188,5.8103065,4.4536529c-0.2125363,0.1276026-0.339736,0.3502021-0.339736,0.5945387
			v6.794724c0,0.2443371,0.1271996,0.4669361,0.339736,0.5945387c0.1062684,0.053134,0.2230024,0.0849342,0.3397365,0.0849342
			s0.2334681-0.0318003,0.339736-0.0953999l5.775516-3.3973627C12.4778318,8.9124899,12.605031,8.6898899,12.605031,8.4455538z"/>
	</g>
</g>
</svg>
