<?xml version="1.0" encoding="utf-8"?>
<!-- Generator: Adobe Illustrator 17.1.0, SVG Export Plug-In . SVG Version: 6.00 Build 0)  -->
<!DOCTYPE svg PUBLIC "-//W3C//DTD SVG 1.1//EN" "http://www.w3.org/Graphics/SVG/1.1/DTD/svg11.dtd">
<svg version="1.1" id="Layer_1" xmlns="http://www.w3.org/2000/svg" xmlns:xlink="http://www.w3.org/1999/xlink" x="0px" y="0px"
	 viewBox="0 0 16.2890625 16.2890644" enable-background="new 0 0 16.2890625 16.2890644" xml:space="preserve">
<rect x="0.0000862" y="-0.0000053" fill="none" width="16.2890625" height="16.2890625"/>
<g>
	<path fill="#58595B" d="M12.9018173,8.789876c0,0.3565588-0.2891197,0.6456776-0.6456776,0.6456776H9.459094v2.7970457
		c0,0.3565588-0.2891197,0.6456776-0.6456776,0.6456776H7.5227289c-0.3565583,0-0.6456776-0.2891188-0.6456776-0.6456776V9.4355536
		H4.0800056c-0.3565583,0-0.6456776-0.2891188-0.6456776-0.6456776V7.4991889c0-0.3565583,0.2891192-0.6456776,0.6456776-0.6456776
		h2.7970457V4.0564656c0-0.3565581,0.2891192-0.6456773,0.6456776-0.6456773h1.2906876
		c0.3565578,0,0.6456776,0.2891192,0.6456776,0.6456773v2.7970457h2.7970457c0.3565578,0,0.6456776,0.2891192,0.6456776,0.6456776
		V8.789876z"/>
</g>
</svg>
