<?xml version="1.0" encoding="utf-8"?>
<!-- Generator: Adobe Illustrator 18.0.0, SVG Export Plug-In . SVG Version: 6.00 Build 0)  -->
<!DOCTYPE svg PUBLIC "-//W3C//DTD SVG 1.1//EN" "http://www.w3.org/Graphics/SVG/1.1/DTD/svg11.dtd">
<svg version="1.1" id="Layer_1" xmlns="http://www.w3.org/2000/svg" xmlns:xlink="http://www.w3.org/1999/xlink" x="0px" y="0px"
	 viewBox="0 0 45 45" enable-background="new 0 0 45 45" xml:space="preserve">
<g>
	<defs>
		<path id="SVGID_1_" d="M-217.9-57c0,12.2,9.9,22,22,22c12.2,0,22-9.8,22-22c0-12.2-9.9-22-22-22C-208-79-217.9-69.2-217.9-57"/>
	</defs>
	<clipPath id="SVGID_2_">
		<use xlink:href="#SVGID_1_"  overflow="visible"/>
	</clipPath>
	<g clip-path="url(#SVGID_2_)">
		<defs>
			<rect id="SVGID_3_" x="-419.9" y="-134" width="1024" height="1024"/>
		</defs>
		<clipPath id="SVGID_4_">
			<use xlink:href="#SVGID_3_"  overflow="visible"/>
		</clipPath>
	</g>
</g>
<g>
	<defs>
		<path id="SVGID_9_" d="M-217.9,22.5c0,12.2,9.9,22,22,22c12.2,0,22-9.8,22-22c0-12.2-9.9-22-22-22C-208,0.5-217.9,10.3-217.9,22.5
			"/>
	</defs>
	<use xlink:href="#SVGID_9_"  overflow="visible" fill="#EC265E"/>
	<clipPath id="SVGID_6_">
		<use xlink:href="#SVGID_9_"  overflow="visible"/>
	</clipPath>
	<g clip-path="url(#SVGID_6_)">
		<defs>
			<rect id="SVGID_11_" x="-419.9" y="-54.5" width="1024" height="1024"/>
		</defs>
		<use xlink:href="#SVGID_11_"  overflow="visible" fill="#EC265E"/>
		<clipPath id="SVGID_8_">
			<use xlink:href="#SVGID_11_"  overflow="visible"/>
		</clipPath>
	</g>
</g>
<g>
	<defs>
		<path id="SVGID_17_" d="M-120.5-57c0,12.2,9.9,22,22,22c12.2,0,22-9.8,22-22c0-12.2-9.9-22-22-22C-110.7-79-120.5-69.2-120.5-57"
			/>
	</defs>
	<clipPath id="SVGID_10_">
		<use xlink:href="#SVGID_17_"  overflow="visible"/>
	</clipPath>
	<g clip-path="url(#SVGID_10_)">
		<defs>
			<rect id="SVGID_19_" x="-322.5" y="-134" width="1024" height="1024"/>
		</defs>
		<clipPath id="SVGID_12_">
			<use xlink:href="#SVGID_19_"  overflow="visible"/>
		</clipPath>
	</g>
</g>
<g>
	<defs>
		<rect id="SVGID_25_" x="-106.5" y="-65" width="16" height="16"/>
	</defs>
	<clipPath id="SVGID_14_">
		<use xlink:href="#SVGID_25_"  overflow="visible"/>
	</clipPath>
	<g clip-path="url(#SVGID_14_)">
		<defs>
			<rect id="SVGID_27_" x="-453.5" y="-1232" width="1044" height="1900"/>
		</defs>
		<clipPath id="SVGID_16_">
			<use xlink:href="#SVGID_27_"  overflow="visible"/>
		</clipPath>
	</g>
</g>
<g>
	<defs>
		<path id="SVGID_29_" d="M-120.5,22.5c0,12.2,9.9,22,22,22c12.2,0,22-9.8,22-22c0-12.2-9.9-22-22-22
			C-110.7,0.5-120.5,10.3-120.5,22.5"/>
	</defs>
	<use xlink:href="#SVGID_29_"  overflow="visible" fill="#EC265E"/>
	<clipPath id="SVGID_18_">
		<use xlink:href="#SVGID_29_"  overflow="visible"/>
	</clipPath>
	<g clip-path="url(#SVGID_18_)">
		<defs>
			<rect id="SVGID_31_" x="-322.5" y="-54.5" width="1024" height="1024"/>
		</defs>
		<use xlink:href="#SVGID_31_"  overflow="visible" fill="#EC265E"/>
		<clipPath id="SVGID_20_">
			<use xlink:href="#SVGID_31_"  overflow="visible"/>
		</clipPath>
	</g>
</g>
<g>
	<defs>
		<rect id="SVGID_37_" x="-106.5" y="14.5" width="16" height="16"/>
	</defs>
	<use xlink:href="#SVGID_37_"  overflow="visible" fill-rule="evenodd" clip-rule="evenodd" fill="#FFFFFF"/>
	<clipPath id="SVGID_22_">
		<use xlink:href="#SVGID_37_"  overflow="visible"/>
	</clipPath>
	<g clip-path="url(#SVGID_22_)">
		<defs>
			<rect id="SVGID_39_" x="-453.5" y="-1152.5" width="1044" height="1900"/>
		</defs>
		<use xlink:href="#SVGID_39_"  overflow="visible" fill="#FFFFFF"/>
		<clipPath id="SVGID_24_">
			<use xlink:href="#SVGID_39_"  overflow="visible"/>
		</clipPath>
	</g>
</g>
<g>
	<defs>
		<path id="SVGID_41_" d="M0.5-57c0,12.2,9.9,22,22,22c12.2,0,22-9.8,22-22c0-12.2-9.9-22-22-22C10.3-79,0.5-69.2,0.5-57"/>
	</defs>
	<clipPath id="SVGID_26_">
		<use xlink:href="#SVGID_41_"  overflow="visible"/>
	</clipPath>
	<g clip-path="url(#SVGID_26_)">
		<defs>
			<rect id="SVGID_43_" x="-201.5" y="-134" width="1024" height="1024"/>
		</defs>
		<clipPath id="SVGID_28_">
			<use xlink:href="#SVGID_43_"  overflow="visible"/>
		</clipPath>
	</g>
</g>
<g>
	<defs>
		<path id="SVGID_49_" d="M0.5,22.5c0,12.2,9.9,22,22,22c12.2,0,22-9.8,22-22c0-12.2-9.9-22-22-22C10.3,0.5,0.5,10.3,0.5,22.5"/>
	</defs>
	<use xlink:href="#SVGID_49_"  overflow="visible" fill="#EC265E"/>
	<clipPath id="SVGID_30_">
		<use xlink:href="#SVGID_49_"  overflow="visible"/>
	</clipPath>
	<g clip-path="url(#SVGID_30_)">
		<defs>
			<rect id="SVGID_51_" x="-201.5" y="-54.5" width="1024" height="1024"/>
		</defs>
		<use xlink:href="#SVGID_51_"  overflow="visible" fill="#EC265E"/>
		<clipPath id="SVGID_32_">
			<use xlink:href="#SVGID_51_"  overflow="visible"/>
		</clipPath>
		<g opacity="0.1" clip-path="url(#SVGID_32_)" enable-background="new    ">
			<g>
				<defs>
					<rect id="SVGID_53_" x="0.5" y="0.5" width="44" height="44"/>
				</defs>
				<use xlink:href="#SVGID_53_"  overflow="visible" fill="#EC265E"/>
				<clipPath id="SVGID_34_">
					<use xlink:href="#SVGID_53_"  overflow="visible"/>
				</clipPath>
				<g clip-path="url(#SVGID_34_)">
					<defs>
						<rect id="SVGID_55_" x="0.5" y="0.5" width="44" height="44"/>
					</defs>
					<use xlink:href="#SVGID_55_"  overflow="visible" fill="#EC265E"/>
					<clipPath id="SVGID_36_">
						<use xlink:href="#SVGID_55_"  overflow="visible"/>
					</clipPath>
					<rect x="-4.5" y="-4.5" clip-path="url(#SVGID_36_)" fill="#EC265E" width="54" height="54"/>
				</g>
			</g>
		</g>
	</g>
</g>
<g>
	<g>
		<path fill="#FFFFFF" d="M29.9,26l-0.8,1.4L27,27l-1,0.8V30l-1.5,0.5l-1.4-1.7h-1.2l-1.4,1.7L19,30l0-2.2L18,27l-2.2,0.4L15.1,26
			l1.4-1.7l-0.2-1.2L14.4,22l0.3-1.5l2.2-0.4l0.6-1.1l-0.8-2.1l1.2-1l1.9,1.1l1.2-0.4l0.8-2.1h1.5l0.8,2.1l1.2,0.4l1.9-1.1l1.2,1
			L27.6,19l0.6,1.1l2.2,0.4l0.3,1.5l-1.9,1.1l-0.2,1.2C28.5,24.3,28.5,24.3,29.9,26z M22.5,25.4c1.5,0,2.8-1.2,2.8-2.8
			c0-1.5-1.2-2.8-2.8-2.8s-2.8,1.2-2.8,2.8C19.7,24.2,21,25.4,22.5,25.4z"/>
	</g>
</g>
</svg>
