<?xml version="1.0" encoding="utf-8"?>
<!-- Generator: Adobe Illustrator 18.0.0, SVG Export Plug-In . SVG Version: 6.00 Build 0)  -->
<!DOCTYPE svg PUBLIC "-//W3C//DTD SVG 1.1//EN" "http://www.w3.org/Graphics/SVG/1.1/DTD/svg11.dtd">
<svg version="1.1" id="Layer_1" xmlns="http://www.w3.org/2000/svg" xmlns:xlink="http://www.w3.org/1999/xlink" x="0px" y="0px"
	 viewBox="0 0 44 44" enable-background="new 0 0 44 44" xml:space="preserve">
<circle fill="#EB2A5F" cx="22" cy="22" r="22"/>
<g>
	<g>
		<path fill="#F1F1F1" d="M29.3,25.5l-0.8,1.4l-2.1-0.4l-1,0.8v2.2L23.9,30l-1.4-1.7h-1.2L19.9,30l-1.5-0.5v-2.2l-1-0.8l-2.2,0.4
			l-0.7-1.4l1.4-1.7l-0.2-1.2l-1.9-1.1l0.3-1.5l2.2-0.4l0.6-1.1l-0.8-2.1l1.2-1l1.9,1.1l1.2-0.4l0.8-2.1h1.5l0.8,2.1l1.2,0.4
			l1.9-1.1l1.2,1L27,18.5l0.6,1.1l2.2,0.4l0.3,1.5l-1.9,1.1L28,23.8C27.9,23.8,27.9,23.8,29.3,25.5z M21.9,24.9
			c1.5,0,2.8-1.2,2.8-2.8c0-1.5-1.2-2.8-2.8-2.8s-2.8,1.2-2.8,2.8C19.1,23.7,20.4,24.9,21.9,24.9z"/>
	</g>
</g>
</svg>
