<?xml version="1.0" encoding="utf-8"?>
<!-- Generator: Adobe Illustrator 17.1.0, SVG Export Plug-In . SVG Version: 6.00 Build 0)  -->
<!DOCTYPE svg PUBLIC "-//W3C//DTD SVG 1.1//EN" "http://www.w3.org/Graphics/SVG/1.1/DTD/svg11.dtd">
<svg version="1.1" id="Layer_1" xmlns="http://www.w3.org/2000/svg" xmlns:xlink="http://www.w3.org/1999/xlink" x="0px" y="0px"
	 viewBox="0 0 16.2890625 17.137743" enable-background="new 0 0 16.2890625 17.137743" xml:space="preserve">
<g>
	<rect x="3.503993" y="3.4283113" fill="#F1F2F2" width="9.518981" height="10.0629225"/>
	<g>
		<path fill="#F1F2F2" d="M8.1441488,0.5822985c-4.496417,0-8.1441269,3.6476095-8.1441269,8.1439266
			s3.6477103,8.1439266,8.1441269,8.1439266s8.1437254-3.6476107,8.1437254-8.1439266S12.6405659,0.5822985,8.1441488,0.5822985z
			 M12.2324953,12.1238155c0,0.3815861-0.3091688,0.690856-0.6907053,0.690856H4.7465076
			c-0.3815365,0-0.6907053-0.3092699-0.6907053-0.690856V5.3286338c0-0.381536,0.3091688-0.690856,0.6907053-0.690856H11.54179
			c0.3815365,0,0.6907053,0.30932,0.6907053,0.690856V12.1238155z"/>
		<path fill="#A52022" d="M8.1437464-0.0000044c-4.4960146,0-8.1437244,3.6476097-8.1437244,8.1439266
			s3.6477103,8.1439257,8.1437244,8.1439257c4.496417,0,8.1441278-3.6476088,8.1441278-8.1439257
			S12.6401634-0.0000044,8.1437464-0.0000044z M12.2324953,11.5415125c0,0.381587-0.3095713,0.690856-0.6911077,0.690856H4.7465076
			c-0.3819385,0-0.6911073-0.309269-0.6911073-0.690856V4.7463307c0-0.381536,0.3091688-0.6908555,0.6911073-0.6908555h6.7948799
			c0.3815365,0,0.6911077,0.3093195,0.6911077,0.6908555V11.5415125z"/>
		<path fill="#EF4136" d="M8.1441488,0.2915377c-4.496417,0-8.1441269,3.6476097-8.1441269,8.1439266
			s3.6477103,8.1439257,8.1441269,8.1439257s8.1437254-3.6476088,8.1437254-8.1439257S12.6405659,0.2915377,8.1441488,0.2915377z
			 M12.2324953,11.8330545c0,0.381587-0.3091688,0.690856-0.6907053,0.690856H4.7465076
			c-0.3815365,0-0.6907053-0.309269-0.6907053-0.690856V5.0378728c0-0.381536,0.3091688-0.6908555,0.6907053-0.6908555H11.54179
			c0.3815365,0,0.6907053,0.3093195,0.6907053,0.6908555V11.8330545z"/>
	</g>
</g>
</svg>
