<?xml version="1.0" encoding="utf-8"?>
<!-- Generator: Adobe Illustrator 17.1.0, SVG Export Plug-In . SVG Version: 6.00 Build 0)  -->
<!DOCTYPE svg PUBLIC "-//W3C//DTD SVG 1.1//EN" "http://www.w3.org/Graphics/SVG/1.1/DTD/svg11.dtd">
<svg version="1.1" id="Layer_1" xmlns="http://www.w3.org/2000/svg" xmlns:xlink="http://www.w3.org/1999/xlink" x="0px" y="0px"
	 viewBox="0 0 16.2890625 17.137743" enable-background="new 0 0 16.2890625 17.137743" xml:space="preserve">
<g>
	<path fill="#F1F2F2" d="M8.1660576,0.5838652c-4.5085135,0-8.1660366,3.6574225-8.1660366,8.1658354
		s3.6575234,8.1658344,8.1660366,8.1658344s8.1656342-3.6574221,8.1656342-8.1658344S12.674571,0.5838652,8.1660576,0.5838652z
		 M12.2654018,12.1564322c0,0.3826122-0.3100004,0.6927137-0.6925631,0.6927137H4.7592759
		c-0.3825626,0-0.6925631-0.3101015-0.6925631-0.6927137V5.3429689c0-0.3825622,0.3100004-0.6927142,0.6925631-0.6927142h6.8135629
		c0.3825626,0,0.6925631,0.3101521,0.6925631,0.6927142V12.1564322z"/>
	<path fill="#37373A" d="M8.1656542-0.0000041c-4.50811,0-8.1656332,3.6574225-8.1656332,8.1658344
		s3.6575234,8.1658363,8.1656332,8.1658363c4.5085135,0,8.1660376-3.657423,8.1660376-8.1658363
		S12.6741676-0.0000041,8.1656542-0.0000041z M12.2654018,11.5725622c0,0.3826132-0.3104029,0.6927147-0.6929655,0.6927147
		H4.7592759c-0.3829656,0-0.6929665-0.3101015-0.6929665-0.6927147V4.7591c0-0.3825626,0.3100009-0.6927147,0.6929665-0.6927147
		h6.8131604c0.3825626,0,0.6929655,0.3101521,0.6929655,0.6927147V11.5725622z"/>
	<path fill="#58595B" d="M8.1660576,0.2923222c-4.5085135,0-8.1660366,3.6574228-8.1660366,8.1658354
		s3.6575234,8.1658354,8.1660366,8.1658354s8.1656342-3.657423,8.1656342-8.1658354S12.674571,0.2923222,8.1660576,0.2923222z
		 M12.2654018,11.8648891c0,0.3826122-0.3100004,0.6927137-0.6925631,0.6927137H4.7592759
		c-0.3825626,0-0.6925631-0.3101015-0.6925631-0.6927137V5.0514259c0-0.3825622,0.3100004-0.6927142,0.6925631-0.6927142h6.8135629
		c0.3825626,0,0.6925631,0.3101521,0.6925631,0.6927142V11.8648891z"/>
</g>
</svg>
