<?xml version="1.0" encoding="utf-8"?>
<!-- Generator: Adobe Illustrator 18.0.0, SVG Export Plug-In . SVG Version: 6.00 Build 0)  -->
<!DOCTYPE svg PUBLIC "-//W3C//DTD SVG 1.1//EN" "http://www.w3.org/Graphics/SVG/1.1/DTD/svg11.dtd">
<svg version="1.1" id="Layer_1" xmlns="http://www.w3.org/2000/svg" xmlns:xlink="http://www.w3.org/1999/xlink" x="0px" y="0px"
	 viewBox="0 0 45 45" enable-background="new 0 0 45 45" xml:space="preserve">
<g>
	<defs>
		<path id="SVGID_1_" d="M-96.9-57c0,12.2,9.9,22,22,22c12.2,0,22-9.8,22-22c0-12.2-9.9-22-22-22C-87-79-96.9-69.2-96.9-57"/>
	</defs>
	<clipPath id="SVGID_2_">
		<use xlink:href="#SVGID_1_"  overflow="visible"/>
	</clipPath>
	<g clip-path="url(#SVGID_2_)">
		<defs>
			<rect id="SVGID_3_" x="-298.9" y="-134" width="1024" height="1024"/>
		</defs>
		<clipPath id="SVGID_4_">
			<use xlink:href="#SVGID_3_"  overflow="visible"/>
		</clipPath>
	</g>
</g>
<g>
	<defs>
		<path id="SVGID_9_" d="M-96.9,22.5c0,12.2,9.9,22,22,22c12.2,0,22-9.8,22-22c0-12.2-9.9-22-22-22C-87,0.5-96.9,10.3-96.9,22.5"/>
	</defs>
	<use xlink:href="#SVGID_9_"  overflow="visible" fill="#EC265E"/>
	<clipPath id="SVGID_6_">
		<use xlink:href="#SVGID_9_"  overflow="visible"/>
	</clipPath>
	<g clip-path="url(#SVGID_6_)">
		<defs>
			<rect id="SVGID_11_" x="-298.9" y="-54.5" width="1024" height="1024"/>
		</defs>
		<use xlink:href="#SVGID_11_"  overflow="visible" fill="#EC265E"/>
		<clipPath id="SVGID_8_">
			<use xlink:href="#SVGID_11_"  overflow="visible"/>
		</clipPath>
	</g>
</g>
<g>
	<defs>
		<path id="SVGID_17_" d="M0.5-57c0,12.2,9.9,22,22,22c12.2,0,22-9.8,22-22c0-12.2-9.9-22-22-22C10.3-79,0.5-69.2,0.5-57"/>
	</defs>
	<clipPath id="SVGID_10_">
		<use xlink:href="#SVGID_17_"  overflow="visible"/>
	</clipPath>
	<g clip-path="url(#SVGID_10_)">
		<defs>
			<rect id="SVGID_19_" x="-201.5" y="-134" width="1024" height="1024"/>
		</defs>
		<clipPath id="SVGID_12_">
			<use xlink:href="#SVGID_19_"  overflow="visible"/>
		</clipPath>
	</g>
</g>
<g>
	<defs>
		<rect id="SVGID_25_" x="14.5" y="-65" width="16" height="16"/>
	</defs>
	<clipPath id="SVGID_14_">
		<use xlink:href="#SVGID_25_"  overflow="visible"/>
	</clipPath>
	<g clip-path="url(#SVGID_14_)">
		<defs>
			<rect id="SVGID_27_" x="-332.5" y="-1232" width="1044" height="1900"/>
		</defs>
		<clipPath id="SVGID_16_">
			<use xlink:href="#SVGID_27_"  overflow="visible"/>
		</clipPath>
	</g>
</g>
<g>
	<defs>
		<path id="SVGID_29_" d="M0.5,22.5c0,12.2,9.9,22,22,22c12.2,0,22-9.8,22-22c0-12.2-9.9-22-22-22C10.3,0.5,0.5,10.3,0.5,22.5"/>
	</defs>
	<use xlink:href="#SVGID_29_"  overflow="visible" fill="#EC265E"/>
	<clipPath id="SVGID_18_">
		<use xlink:href="#SVGID_29_"  overflow="visible"/>
	</clipPath>
	<g clip-path="url(#SVGID_18_)">
		<defs>
			<rect id="SVGID_31_" x="-201.5" y="-54.5" width="1024" height="1024"/>
		</defs>
		<use xlink:href="#SVGID_31_"  overflow="visible" fill="#EC265E"/>
		<clipPath id="SVGID_20_">
			<use xlink:href="#SVGID_31_"  overflow="visible"/>
		</clipPath>
		<g opacity="0.1" clip-path="url(#SVGID_20_)" enable-background="new    ">
			<g>
				<defs>
					<rect id="SVGID_33_" x="0.5" y="0.5" width="44" height="44"/>
				</defs>
				<use xlink:href="#SVGID_33_"  overflow="visible" fill="#EC265E"/>
				<clipPath id="SVGID_22_">
					<use xlink:href="#SVGID_33_"  overflow="visible"/>
				</clipPath>
				<g clip-path="url(#SVGID_22_)">
					<defs>
						<rect id="SVGID_35_" x="0.5" y="0.5" width="44" height="44"/>
					</defs>
					<use xlink:href="#SVGID_35_"  overflow="visible" fill="#EC265E"/>
					<clipPath id="SVGID_24_">
						<use xlink:href="#SVGID_35_"  overflow="visible"/>
					</clipPath>
					<rect x="-4.5" y="-4.5" clip-path="url(#SVGID_24_)" fill="#EC265E" width="54" height="54"/>
				</g>
			</g>
		</g>
	</g>
</g>
<g>
	<defs>
		<rect id="SVGID_37_" x="14.5" y="14.5" width="16" height="16"/>
	</defs>
	<use xlink:href="#SVGID_37_"  overflow="visible" fill-rule="evenodd" clip-rule="evenodd" fill="#FFFFFF"/>
	<clipPath id="SVGID_26_">
		<use xlink:href="#SVGID_37_"  overflow="visible"/>
	</clipPath>
	<g clip-path="url(#SVGID_26_)">
		<defs>
			<rect id="SVGID_39_" x="-332.5" y="-1152.5" width="1044" height="1900"/>
		</defs>
		<use xlink:href="#SVGID_39_"  overflow="visible" fill="#FFFFFF"/>
		<clipPath id="SVGID_28_">
			<use xlink:href="#SVGID_39_"  overflow="visible"/>
		</clipPath>
		<rect x="9.5" y="9.5" clip-path="url(#SVGID_28_)" fill="#FFFFFF" width="26" height="26"/>
	</g>
</g>
<g>
	<defs>
		<path id="SVGID_41_" d="M121.5-57c0,12.2,9.9,22,22,22c12.2,0,22-9.8,22-22c0-12.2-9.9-22-22-22C131.3-79,121.5-69.2,121.5-57"/>
	</defs>
	<clipPath id="SVGID_30_">
		<use xlink:href="#SVGID_41_"  overflow="visible"/>
	</clipPath>
	<g clip-path="url(#SVGID_30_)">
		<defs>
			<rect id="SVGID_43_" x="-80.5" y="-134" width="1024" height="1024"/>
		</defs>
		<clipPath id="SVGID_32_">
			<use xlink:href="#SVGID_43_"  overflow="visible"/>
		</clipPath>
	</g>
</g>
<g>
	<defs>
		<path id="SVGID_49_" d="M121.5,22.5c0,12.2,9.9,22,22,22c12.2,0,22-9.8,22-22c0-12.2-9.9-22-22-22
			C131.3,0.5,121.5,10.3,121.5,22.5"/>
	</defs>
	<use xlink:href="#SVGID_49_"  overflow="visible" fill="#EC265E"/>
	<clipPath id="SVGID_34_">
		<use xlink:href="#SVGID_49_"  overflow="visible"/>
	</clipPath>
	<g clip-path="url(#SVGID_34_)">
		<defs>
			<rect id="SVGID_51_" x="-80.5" y="-54.5" width="1024" height="1024"/>
		</defs>
		<use xlink:href="#SVGID_51_"  overflow="visible" fill="#EC265E"/>
		<clipPath id="SVGID_36_">
			<use xlink:href="#SVGID_51_"  overflow="visible"/>
		</clipPath>
	</g>
</g>
</svg>
