<?xml version="1.0" encoding="utf-8"?>
<!-- Generator: Adobe Illustrator 17.1.0, SVG Export Plug-In . SVG Version: 6.00 Build 0)  -->
<!DOCTYPE svg PUBLIC "-//W3C//DTD SVG 1.1//EN" "http://www.w3.org/Graphics/SVG/1.1/DTD/svg11.dtd">
<svg version="1.1" id="Layer_1" xmlns="http://www.w3.org/2000/svg" xmlns:xlink="http://www.w3.org/1999/xlink" x="0px" y="0px"
	 viewBox="111.982048 169.6423035 388.0419922 220.7826385"
	 enable-background="new 111.982048 169.6423035 388.0419922 220.7826385" xml:space="preserve">
<g>
	<g>
		<path fill="#58595B" d="M155.9001312,271.0058594h-35.6478729c-4.5675125,0-8.2702103-3.7027283-8.2702103-8.2702332v-11.394104
			c0-4.5675201,3.7026978-8.2702179,8.2702103-8.2702179h104.6375732c4.5675201,0,8.2702179,3.7026978,8.2702179,8.2702179
			v11.394104c0,4.5675049-3.7026978,8.2702332-8.2702179,8.2702332h-35.6478729v110.6532288
			c0,4.5675049-3.7026978,8.2702026-8.2702179,8.2702026h-16.8013916c-4.5675049,0-8.2702179-3.7026978-8.2702179-8.2702026
			V271.0058594z"/>
	</g>
	<g>
		<path fill="#58595B" d="M297.0392456,211.5441284h-57.6252594c-4.5675049,0-8.2702026-3.7026978-8.2702026-8.2702179v-25.3613892
			c0-4.5675201,3.7026978-8.2702179,8.2702026-8.2702179h165.2357635c4.5675049,0,8.2702026,3.7026978,8.2702026,8.2702179
			v25.3613892c0,4.5675201-3.7026978,8.2702179-8.2702026,8.2702179h-57.6069336v170.1149597
			c0,4.5675049-3.7026978,8.2702026-8.2702026,8.2702026h-33.4631653c-4.5675049,0-8.2702026-3.7026978-8.2702026-8.2702026
			V211.5441284z"/>
	</g>
</g>
</svg>
