<?xml version="1.0" encoding="utf-8"?>
<!-- Generator: Adobe Illustrator 17.1.0, SVG Export Plug-In . SVG Version: 6.00 Build 0)  -->
<!DOCTYPE svg PUBLIC "-//W3C//DTD SVG 1.1//EN" "http://www.w3.org/Graphics/SVG/1.1/DTD/svg11.dtd">
<svg version="1.1" id="Layer_1" xmlns="http://www.w3.org/2000/svg" xmlns:xlink="http://www.w3.org/1999/xlink" x="0px" y="0px"
	 viewBox="0 0 16.2890625 16.2890644" enable-background="new 0 0 16.2890625 16.2890644" xml:space="preserve">
<g>
	<path fill="#58595B" d="M13.7390404,12.8781128c0,0.3565578-0.2891197,0.6456776-0.6456776,0.6456776H3.1958671
		c-0.3565583,0-0.6456776-0.2891197-0.6456776-0.6456776v-2.1513681c0-0.3565588,0.2891192-0.6456776,0.6456776-0.6456776H6.067029
		c0.1812835,0.4974451,0.6586976,0.8606806,1.2169051,0.8606806h1.7213616c0.5582075,0,1.0356216-0.3632355,1.2169046-0.8606806
		h2.8711624c0.3565578,0,0.6456776,0.2891188,0.6456776,0.6456776V12.8781128z M11.1569977,6.6383433H9.4356356v3.012383
		c0,0.2353687-0.1949711,0.4303408-0.4303398,0.4303408H7.2839341c-0.2353687,0-0.4303408-0.194972-0.4303408-0.4303408v-3.012383
		H5.1322317c-0.1749401,0-0.3295155-0.1075015-0.3966208-0.2690878c-0.0674391-0.1545753-0.0337195-0.3428702,0.0941472-0.463726
		l3.012383-3.0123827c0.0804596-0.0874703,0.194972-0.127867,0.302474-0.127867c0.107501,0,0.2220135,0.0403967,0.3024731,0.127867
		l3.0123835,3.0123827c0.1278667,0.1208558,0.1615858,0.3091507,0.0941467,0.463726
		C11.4865131,6.5308418,11.3319378,6.6383433,11.1569977,6.6383433z M10.7266569,11.8024282
		c-0.2353678,0-0.4303398,0.194972-0.4303398,0.4303408s0.194972,0.4303398,0.4303398,0.4303398
		c0.2353687,0,0.4303408-0.1949711,0.4303408-0.4303398S10.9620256,11.8024282,10.7266569,11.8024282z M12.448019,11.8024282
		c-0.2353687,0-0.4303408,0.194972-0.4303408,0.4303408s0.194972,0.4303398,0.4303408,0.4303398
		s0.4303398-0.1949711,0.4303398-0.4303398S12.6833878,11.8024282,12.448019,11.8024282z"/>
</g>
<rect x="0.0000862" y="-0.0000053" fill="none" width="16.2890625" height="16.2890625"/>
</svg>
