<svg xmlns="http://www.w3.org/2000/svg" xmlns:xlink="http://www.w3.org/1999/xlink" version="1.1" id="Layer_1" x="0" y="0" viewBox="111.98 169.64 394.28 263.42" enable-background="new 111.982048 169.6423035 394.276123 263.4234009" xml:space="preserve"><path fill="#58595B" d="M404.33 169.64h-95.14c-6.67 0-12.19 5.52-12.19 12.19v44.02c0 6.61 5.44 12.06 12.03 12.15 -0.01 0.02-0.01 0.03-0.02 0.04h97.18c16.83 0 30.47 13.64 30.47 30.47s-13.65 30.47-30.47 30.47H221.67v-48.75c0-4.96-3.04-9.33-7.62-11.24 -4.38-1.91-9.71-0.95-13.13 2.67l-85.32 85.31c-2.48 2.28-3.62 5.52-3.62 8.57 0 3.05 1.14 6.29 3.62 8.57l85.32 85.31c3.42 3.62 8.76 4.58 13.13 2.67 4.58-1.9 7.62-6.28 7.62-11.23v-48.75c0 0 180.15 0 182.65 0 55.91 0 101.24-45.33 101.24-101.24S460.24 169.64 404.33 169.64z"/></svg>